<mxfile host="Electron" modified="2023-11-04T13:05:14.717Z" agent="Mozilla/5.0 (Windows NT 10.0; Win64; x64) AppleWebKit/537.36 (KHTML, like Gecko) draw.io/22.0.3 Chrome/114.0.5735.289 Electron/25.8.4 Safari/537.36" etag="Io2Rl4rqpbiUpEd6lVpj" version="22.0.3" type="device">
  <diagram id="C5RBs43oDa-KdzZeNtuy" name="Page-1">
    <mxGraphModel dx="1760" dy="1064" grid="1" gridSize="10" guides="1" tooltips="1" connect="1" arrows="1" fold="1" page="1" pageScale="1" pageWidth="1169" pageHeight="1654" math="0" shadow="0">
      <root>
        <mxCell id="WIyWlLk6GJQsqaUBKTNV-0" />
        <mxCell id="WIyWlLk6GJQsqaUBKTNV-1" parent="WIyWlLk6GJQsqaUBKTNV-0" />
        <mxCell id="P1vVaq_7GyYpHQZIxeem-0" value="&lt;b style=&quot;font-size: 13px;&quot;&gt;StranackoZaduzenje&lt;/b&gt;" style="html=1;whiteSpace=wrap;fontSize=13;fillColor=#dae8fc;strokeColor=#6c8ebf;gradientColor=#7ea6e0;" vertex="1" parent="WIyWlLk6GJQsqaUBKTNV-1">
          <mxGeometry x="450" y="200" width="130" height="50" as="geometry" />
        </mxCell>
        <mxCell id="P1vVaq_7GyYpHQZIxeem-1" value="&lt;b style=&quot;font-size: 13px;&quot;&gt;Glasac&lt;/b&gt;" style="html=1;whiteSpace=wrap;fontSize=13;fillColor=#dae8fc;strokeColor=#6c8ebf;gradientColor=#7ea6e0;" vertex="1" parent="WIyWlLk6GJQsqaUBKTNV-1">
          <mxGeometry x="720" y="440" width="130" height="50" as="geometry" />
        </mxCell>
        <mxCell id="P1vVaq_7GyYpHQZIxeem-2" value="&lt;b style=&quot;font-size: 13px;&quot;&gt;Politicar&lt;/b&gt;" style="html=1;whiteSpace=wrap;fontSize=13;fillColor=#dae8fc;strokeColor=#6c8ebf;gradientColor=#7ea6e0;" vertex="1" parent="WIyWlLk6GJQsqaUBKTNV-1">
          <mxGeometry x="740" y="660" width="130" height="50" as="geometry" />
        </mxCell>
        <mxCell id="P1vVaq_7GyYpHQZIxeem-3" value="&lt;b style=&quot;font-size: 13px;&quot;&gt;Lider&lt;/b&gt;" style="html=1;whiteSpace=wrap;fontSize=13;fillColor=#dae8fc;strokeColor=#6c8ebf;gradientColor=#7ea6e0;" vertex="1" parent="WIyWlLk6GJQsqaUBKTNV-1">
          <mxGeometry x="770" y="810" width="130" height="50" as="geometry" />
        </mxCell>
        <mxCell id="P1vVaq_7GyYpHQZIxeem-4" value="&lt;b style=&quot;font-size: 13px;&quot;&gt;Edukator&lt;br style=&quot;font-size: 13px;&quot;&gt;&lt;/b&gt;" style="html=1;whiteSpace=wrap;fontSize=13;fillColor=#dae8fc;strokeColor=#6c8ebf;gradientColor=#7ea6e0;" vertex="1" parent="WIyWlLk6GJQsqaUBKTNV-1">
          <mxGeometry x="450" y="340" width="130" height="50" as="geometry" />
        </mxCell>
        <mxCell id="P1vVaq_7GyYpHQZIxeem-5" value="&lt;b style=&quot;font-size: 13px;&quot;&gt;Fundraiser&lt;/b&gt;" style="html=1;whiteSpace=wrap;fontSize=13;fillColor=#dae8fc;strokeColor=#6c8ebf;gradientColor=#7ea6e0;" vertex="1" parent="WIyWlLk6GJQsqaUBKTNV-1">
          <mxGeometry x="450" y="420" width="130" height="50" as="geometry" />
        </mxCell>
        <mxCell id="P1vVaq_7GyYpHQZIxeem-6" value="&lt;b style=&quot;font-size: 13px;&quot;&gt;MitingNavijac&lt;/b&gt;" style="html=1;whiteSpace=wrap;fontSize=13;fillColor=#dae8fc;strokeColor=#6c8ebf;gradientColor=#7ea6e0;" vertex="1" parent="WIyWlLk6GJQsqaUBKTNV-1">
          <mxGeometry x="450" y="500" width="130" height="50" as="geometry" />
        </mxCell>
        <mxCell id="P1vVaq_7GyYpHQZIxeem-7" value="&lt;b style=&quot;font-size: 13px;&quot;&gt;XOR&lt;/b&gt;" style="html=1;whiteSpace=wrap;fontSize=13;fillColor=#dae8fc;strokeColor=#6c8ebf;gradientColor=#7ea6e0;" vertex="1" parent="WIyWlLk6GJQsqaUBKTNV-1">
          <mxGeometry x="210" y="390" width="130" height="50" as="geometry" />
        </mxCell>
        <mxCell id="P1vVaq_7GyYpHQZIxeem-8" value="" style="endArrow=none;html=1;edgeStyle=orthogonalEdgeStyle;rounded=0;entryX=0;entryY=0.25;entryDx=0;entryDy=0;fontSize=13;" edge="1" parent="WIyWlLk6GJQsqaUBKTNV-1" target="P1vVaq_7GyYpHQZIxeem-4">
          <mxGeometry relative="1" as="geometry">
            <mxPoint x="340" y="414.5" as="sourcePoint" />
            <mxPoint x="500" y="414.5" as="targetPoint" />
          </mxGeometry>
        </mxCell>
        <mxCell id="P1vVaq_7GyYpHQZIxeem-11" value="&lt;b style=&quot;font-size: 13px;&quot;&gt;Blagajnik&lt;/b&gt;" style="html=1;whiteSpace=wrap;fontSize=13;fillColor=#dae8fc;strokeColor=#6c8ebf;gradientColor=#7ea6e0;" vertex="1" parent="WIyWlLk6GJQsqaUBKTNV-1">
          <mxGeometry x="450" y="600" width="130" height="50" as="geometry" />
        </mxCell>
        <mxCell id="P1vVaq_7GyYpHQZIxeem-13" value="" style="endArrow=none;html=1;edgeStyle=orthogonalEdgeStyle;rounded=0;fontSize=13;" edge="1" parent="WIyWlLk6GJQsqaUBKTNV-1">
          <mxGeometry relative="1" as="geometry">
            <mxPoint x="340" y="430" as="sourcePoint" />
            <mxPoint x="450" y="430" as="targetPoint" />
          </mxGeometry>
        </mxCell>
        <mxCell id="P1vVaq_7GyYpHQZIxeem-16" value="" style="endArrow=none;html=1;edgeStyle=orthogonalEdgeStyle;rounded=0;entryX=0.25;entryY=0;entryDx=0;entryDy=0;fontSize=13;" edge="1" parent="WIyWlLk6GJQsqaUBKTNV-1" target="P1vVaq_7GyYpHQZIxeem-1">
          <mxGeometry relative="1" as="geometry">
            <mxPoint x="580" y="370" as="sourcePoint" />
            <mxPoint x="740" y="370" as="targetPoint" />
          </mxGeometry>
        </mxCell>
        <mxCell id="P1vVaq_7GyYpHQZIxeem-19" value="" style="endArrow=none;html=1;edgeStyle=orthogonalEdgeStyle;rounded=0;fontSize=13;" edge="1" parent="WIyWlLk6GJQsqaUBKTNV-1">
          <mxGeometry relative="1" as="geometry">
            <mxPoint x="580" y="450" as="sourcePoint" />
            <mxPoint x="720" y="450" as="targetPoint" />
          </mxGeometry>
        </mxCell>
        <mxCell id="P1vVaq_7GyYpHQZIxeem-22" value="" style="endArrow=none;html=1;edgeStyle=orthogonalEdgeStyle;rounded=0;entryX=0.25;entryY=1;entryDx=0;entryDy=0;fontSize=13;" edge="1" parent="WIyWlLk6GJQsqaUBKTNV-1" target="P1vVaq_7GyYpHQZIxeem-1">
          <mxGeometry relative="1" as="geometry">
            <mxPoint x="580" y="524.5" as="sourcePoint" />
            <mxPoint x="720" y="524.5" as="targetPoint" />
          </mxGeometry>
        </mxCell>
        <mxCell id="P1vVaq_7GyYpHQZIxeem-23" value="" style="endArrow=none;html=1;edgeStyle=orthogonalEdgeStyle;rounded=0;entryX=0.5;entryY=0;entryDx=0;entryDy=0;fontSize=13;" edge="1" parent="WIyWlLk6GJQsqaUBKTNV-1" target="P1vVaq_7GyYpHQZIxeem-1">
          <mxGeometry relative="1" as="geometry">
            <mxPoint x="580" y="240" as="sourcePoint" />
            <mxPoint x="720" y="240" as="targetPoint" />
          </mxGeometry>
        </mxCell>
        <mxCell id="P1vVaq_7GyYpHQZIxeem-25" value="&lt;b style=&quot;font-size: 13px;&quot;&gt;Sekretar&lt;/b&gt;" style="html=1;whiteSpace=wrap;fontSize=13;fillColor=#dae8fc;strokeColor=#6c8ebf;gradientColor=#7ea6e0;" vertex="1" parent="WIyWlLk6GJQsqaUBKTNV-1">
          <mxGeometry x="450" y="680" width="130" height="50" as="geometry" />
        </mxCell>
        <mxCell id="P1vVaq_7GyYpHQZIxeem-26" value="&lt;b style=&quot;font-size: 13px;&quot;&gt;PR&lt;/b&gt;" style="html=1;whiteSpace=wrap;fontSize=13;fillColor=#dae8fc;strokeColor=#6c8ebf;gradientColor=#7ea6e0;" vertex="1" parent="WIyWlLk6GJQsqaUBKTNV-1">
          <mxGeometry x="450" y="770" width="130" height="50" as="geometry" />
        </mxCell>
        <mxCell id="P1vVaq_7GyYpHQZIxeem-27" value="&lt;b style=&quot;font-size: 13px;&quot;&gt;XOR&lt;/b&gt;" style="html=1;whiteSpace=wrap;fontSize=13;fillColor=#dae8fc;strokeColor=#6c8ebf;gradientColor=#7ea6e0;" vertex="1" parent="WIyWlLk6GJQsqaUBKTNV-1">
          <mxGeometry x="260" y="660" width="130" height="50" as="geometry" />
        </mxCell>
        <mxCell id="P1vVaq_7GyYpHQZIxeem-28" value="" style="endArrow=none;html=1;edgeStyle=orthogonalEdgeStyle;rounded=0;entryX=0.25;entryY=0;entryDx=0;entryDy=0;fontSize=13;" edge="1" parent="WIyWlLk6GJQsqaUBKTNV-1" target="P1vVaq_7GyYpHQZIxeem-2">
          <mxGeometry relative="1" as="geometry">
            <mxPoint x="580" y="624.5799999999999" as="sourcePoint" />
            <mxPoint x="720" y="624.5799999999999" as="targetPoint" />
          </mxGeometry>
        </mxCell>
        <mxCell id="P1vVaq_7GyYpHQZIxeem-29" value="" style="endArrow=none;html=1;edgeStyle=orthogonalEdgeStyle;rounded=0;entryX=0;entryY=0.25;entryDx=0;entryDy=0;fontSize=13;" edge="1" parent="WIyWlLk6GJQsqaUBKTNV-1" target="P1vVaq_7GyYpHQZIxeem-2">
          <mxGeometry relative="1" as="geometry">
            <mxPoint x="580" y="700" as="sourcePoint" />
            <mxPoint x="720" y="700" as="targetPoint" />
          </mxGeometry>
        </mxCell>
        <mxCell id="P1vVaq_7GyYpHQZIxeem-30" value="" style="endArrow=none;html=1;edgeStyle=orthogonalEdgeStyle;rounded=0;entryX=0.25;entryY=1;entryDx=0;entryDy=0;fontSize=13;" edge="1" parent="WIyWlLk6GJQsqaUBKTNV-1" target="P1vVaq_7GyYpHQZIxeem-2">
          <mxGeometry relative="1" as="geometry">
            <mxPoint x="580" y="794.5799999999999" as="sourcePoint" />
            <mxPoint x="720" y="794.5799999999999" as="targetPoint" />
          </mxGeometry>
        </mxCell>
        <mxCell id="P1vVaq_7GyYpHQZIxeem-31" value="" style="endArrow=none;html=1;edgeStyle=orthogonalEdgeStyle;rounded=0;entryX=0.91;entryY=0.007;entryDx=0;entryDy=0;entryPerimeter=0;fontSize=13;" edge="1" parent="WIyWlLk6GJQsqaUBKTNV-1" target="P1vVaq_7GyYpHQZIxeem-2">
          <mxGeometry relative="1" as="geometry">
            <mxPoint x="580" y="230" as="sourcePoint" />
            <mxPoint x="720" y="230" as="targetPoint" />
          </mxGeometry>
        </mxCell>
        <mxCell id="P1vVaq_7GyYpHQZIxeem-33" value="" style="endArrow=none;html=1;edgeStyle=orthogonalEdgeStyle;rounded=0;exitX=0.5;exitY=0;exitDx=0;exitDy=0;fontSize=13;" edge="1" parent="WIyWlLk6GJQsqaUBKTNV-1" source="P1vVaq_7GyYpHQZIxeem-27">
          <mxGeometry relative="1" as="geometry">
            <mxPoint x="310" y="624.71" as="sourcePoint" />
            <mxPoint x="450" y="650" as="targetPoint" />
            <Array as="points">
              <mxPoint x="325" y="650" />
            </Array>
          </mxGeometry>
        </mxCell>
        <mxCell id="P1vVaq_7GyYpHQZIxeem-34" value="" style="endArrow=none;html=1;edgeStyle=orthogonalEdgeStyle;rounded=0;fontSize=13;" edge="1" parent="WIyWlLk6GJQsqaUBKTNV-1">
          <mxGeometry relative="1" as="geometry">
            <mxPoint x="390" y="700" as="sourcePoint" />
            <mxPoint x="450" y="700" as="targetPoint" />
          </mxGeometry>
        </mxCell>
        <mxCell id="P1vVaq_7GyYpHQZIxeem-35" value="" style="endArrow=none;html=1;edgeStyle=orthogonalEdgeStyle;rounded=0;exitX=0.5;exitY=1;exitDx=0;exitDy=0;fontSize=13;" edge="1" parent="WIyWlLk6GJQsqaUBKTNV-1" source="P1vVaq_7GyYpHQZIxeem-27">
          <mxGeometry relative="1" as="geometry">
            <mxPoint x="290" y="800" as="sourcePoint" />
            <mxPoint x="450" y="800" as="targetPoint" />
            <Array as="points">
              <mxPoint x="325" y="800" />
            </Array>
          </mxGeometry>
        </mxCell>
        <mxCell id="P1vVaq_7GyYpHQZIxeem-38" value="" style="endArrow=none;html=1;edgeStyle=orthogonalEdgeStyle;rounded=0;entryX=0.892;entryY=-0.021;entryDx=0;entryDy=0;entryPerimeter=0;fontSize=13;" edge="1" parent="WIyWlLk6GJQsqaUBKTNV-1" target="P1vVaq_7GyYpHQZIxeem-3">
          <mxGeometry relative="1" as="geometry">
            <mxPoint x="580" y="220" as="sourcePoint" />
            <mxPoint x="887" y="860" as="targetPoint" />
          </mxGeometry>
        </mxCell>
        <mxCell id="P1vVaq_7GyYpHQZIxeem-41" value="" style="endArrow=block;endSize=16;endFill=0;html=1;rounded=0;entryX=0.75;entryY=1;entryDx=0;entryDy=0;exitX=0.5;exitY=0;exitDx=0;exitDy=0;fontSize=13;" edge="1" parent="WIyWlLk6GJQsqaUBKTNV-1" source="P1vVaq_7GyYpHQZIxeem-2">
          <mxGeometry width="160" relative="1" as="geometry">
            <mxPoint x="803.43" y="655.2" as="sourcePoint" />
            <mxPoint x="806.57" y="490" as="targetPoint" />
          </mxGeometry>
        </mxCell>
        <mxCell id="P1vVaq_7GyYpHQZIxeem-42" value="" style="endArrow=block;endSize=16;endFill=0;html=1;rounded=0;entryX=0.75;entryY=1;entryDx=0;entryDy=0;fontSize=13;" edge="1" parent="WIyWlLk6GJQsqaUBKTNV-1">
          <mxGeometry width="160" relative="1" as="geometry">
            <mxPoint x="817" y="810" as="sourcePoint" />
            <mxPoint x="816.57" y="710" as="targetPoint" />
          </mxGeometry>
        </mxCell>
        <mxCell id="P1vVaq_7GyYpHQZIxeem-43" value="" style="endArrow=none;html=1;edgeStyle=orthogonalEdgeStyle;rounded=0;entryX=0.25;entryY=1;entryDx=0;entryDy=0;" edge="1" parent="WIyWlLk6GJQsqaUBKTNV-1" target="P1vVaq_7GyYpHQZIxeem-0">
          <mxGeometry relative="1" as="geometry">
            <mxPoint x="490" y="340" as="sourcePoint" />
            <mxPoint x="650" y="340" as="targetPoint" />
          </mxGeometry>
        </mxCell>
        <mxCell id="P1vVaq_7GyYpHQZIxeem-46" value="" style="endArrow=none;html=1;edgeStyle=orthogonalEdgeStyle;rounded=0;" edge="1" parent="WIyWlLk6GJQsqaUBKTNV-1">
          <mxGeometry relative="1" as="geometry">
            <mxPoint x="450" y="250" as="sourcePoint" />
            <mxPoint x="450" y="464.52" as="targetPoint" />
            <Array as="points">
              <mxPoint x="450" y="250" />
              <mxPoint x="200" y="250" />
              <mxPoint x="200" y="465" />
            </Array>
          </mxGeometry>
        </mxCell>
        <mxCell id="P1vVaq_7GyYpHQZIxeem-49" value="" style="endArrow=none;html=1;edgeStyle=orthogonalEdgeStyle;rounded=0;" edge="1" parent="WIyWlLk6GJQsqaUBKTNV-1">
          <mxGeometry relative="1" as="geometry">
            <mxPoint x="450" y="240" as="sourcePoint" />
            <mxPoint x="450" y="529.52" as="targetPoint" />
            <Array as="points">
              <mxPoint x="190" y="240" />
              <mxPoint x="190" y="530" />
            </Array>
          </mxGeometry>
        </mxCell>
        <mxCell id="P1vVaq_7GyYpHQZIxeem-50" value="" style="endArrow=none;html=1;edgeStyle=orthogonalEdgeStyle;rounded=0;" edge="1" parent="WIyWlLk6GJQsqaUBKTNV-1">
          <mxGeometry relative="1" as="geometry">
            <mxPoint x="450" y="230" as="sourcePoint" />
            <mxPoint x="450" y="619.52" as="targetPoint" />
            <Array as="points">
              <mxPoint x="180" y="230" />
              <mxPoint x="180" y="619" />
            </Array>
          </mxGeometry>
        </mxCell>
        <mxCell id="P1vVaq_7GyYpHQZIxeem-51" value="" style="endArrow=none;html=1;edgeStyle=orthogonalEdgeStyle;rounded=0;" edge="1" parent="WIyWlLk6GJQsqaUBKTNV-1">
          <mxGeometry relative="1" as="geometry">
            <mxPoint x="450" y="220" as="sourcePoint" />
            <mxPoint x="450" y="809.52" as="targetPoint" />
            <Array as="points">
              <mxPoint x="170" y="220" />
              <mxPoint x="170" y="810" />
            </Array>
          </mxGeometry>
        </mxCell>
        <mxCell id="P1vVaq_7GyYpHQZIxeem-52" value="" style="endArrow=none;html=1;edgeStyle=orthogonalEdgeStyle;rounded=0;" edge="1" parent="WIyWlLk6GJQsqaUBKTNV-1">
          <mxGeometry relative="1" as="geometry">
            <mxPoint x="450" y="210" as="sourcePoint" />
            <mxPoint x="450" y="719.52" as="targetPoint" />
            <Array as="points">
              <mxPoint x="450" y="210" />
              <mxPoint x="160" y="210" />
              <mxPoint x="160" y="720" />
            </Array>
          </mxGeometry>
        </mxCell>
      </root>
    </mxGraphModel>
  </diagram>
</mxfile>
